<svg xmlns="http://www.w3.org/2000/svg" width="24" height="24" viewBox="0 0 24 24">
<path d="M9.642 1.7265C10.062 0.8865 10.8195 0 12 0C13.1805 0 13.938 0.888 14.358 1.7265C14.7915 2.595 15 3.6465 15 4.5V10.0365L22.755 13.914C23.129 14.1007 23.4437 14.388 23.6636 14.7436C23.8835 15.0991 24 15.5089 24 15.927V18C24 18.1089 23.9762 18.2164 23.9304 18.3152C23.8846 18.414 23.8178 18.5016 23.7348 18.5719C23.6517 18.6423 23.5543 18.6937 23.4493 18.7227C23.3444 18.7516 23.2344 18.7574 23.127 18.7395L14.8665 17.3625L14.304 20.742L16.281 22.719C16.3862 22.8239 16.4578 22.9577 16.4869 23.1033C16.5159 23.249 16.5011 23.4 16.4442 23.5372C16.3873 23.6744 16.291 23.7916 16.1674 23.874C16.0438 23.9564 15.8985 24.0003 15.75 24H8.25C8.10147 24.0003 7.9562 23.9564 7.83262 23.874C7.70904 23.7916 7.6127 23.6744 7.55582 23.5372C7.49895 23.4 7.48409 23.249 7.51314 23.1033C7.54219 22.9577 7.61384 22.8239 7.719 22.719L9.6975 20.742L9.1335 17.3625L0.873 18.7395C0.765604 18.7574 0.655609 18.7516 0.550656 18.7227C0.445702 18.6937 0.348306 18.6423 0.265235 18.5719C0.182163 18.5016 0.115407 18.414 0.0696044 18.3152C0.0238016 18.2164 5.0115e-05 18.1089 0 18L0 15.927C1.41225e-05 15.5089 0.116509 15.0991 0.336417 14.7436C0.556326 14.388 0.87095 14.1007 1.245 13.914L9 10.0365V4.5C9 3.648 9.21 2.5935 9.642 1.7265ZM10.983 2.3985C10.6665 3.03 10.5 3.8535 10.5 4.5V10.5C10.5 10.6392 10.4613 10.7756 10.3882 10.894C10.315 11.0124 10.2104 11.1082 10.086 11.1705L1.914 15.2565C1.78958 15.3188 1.68496 15.4146 1.61185 15.533C1.53873 15.6514 1.5 15.7878 1.5 15.927V17.115L9.627 15.7605C9.82289 15.7279 10.0237 15.7744 10.1854 15.8897C10.3471 16.005 10.4564 16.1797 10.4895 16.3755L11.2395 20.8755C11.2594 20.9936 11.2507 21.1147 11.2141 21.2288C11.1776 21.3428 11.1143 21.4464 11.0295 21.531L10.062 22.5H13.941L12.9705 21.531C12.8859 21.4466 12.8228 21.3432 12.7862 21.2295C12.7497 21.1157 12.7409 20.9949 12.7605 20.877L13.5105 16.377C13.5267 16.2798 13.5619 16.1867 13.6141 16.103C13.6663 16.0194 13.7344 15.9469 13.8147 15.8896C13.8949 15.8324 13.9857 15.7915 14.0817 15.7693C14.1778 15.7472 14.2773 15.7442 14.3745 15.7605L22.5 17.115V15.927C22.5 15.7878 22.4613 15.6514 22.3882 15.533C22.315 15.4146 22.2104 15.3188 22.086 15.2565L13.914 11.1705C13.7896 11.1082 13.685 11.0124 13.6118 10.894C13.5387 10.7756 13.5 10.6392 13.5 10.5V4.5C13.5 3.852 13.335 3.0315 13.017 2.3985C12.687 1.7385 12.3195 1.5 12 1.5C11.6805 1.5 11.313 1.737 10.983 2.3985Z" fill="black"/>
</svg>