<svg width="22" height="22" viewBox="0 0 22 22" xmlns="http://www.w3.org/2000/svg">
<path d="M11 21C12.3135 21.0017 13.6143 20.7438 14.8278 20.2411C16.0413 19.7385 17.1435 19.001 18.071 18.071C19.001 17.1435 19.7385 16.0413 20.2411 14.8278C20.7438 13.6143 21.0017 12.3135 21 11C21.0017 9.68654 20.7438 8.38569 20.2411 7.17222C19.7385 5.95874 19.001 4.85656 18.071 3.92901C17.1435 2.99902 16.0413 2.26151 14.8278 1.75885C13.6143 1.25619 12.3135 0.998307 11 1.00001C9.68654 0.998334 8.38569 1.25623 7.17222 1.75889C5.95874 2.26154 4.85656 2.99904 3.92901 3.92901C2.99904 4.85656 2.26154 5.95874 1.75889 7.17222C1.25623 8.38569 0.998334 9.68654 1.00001 11C0.998307 12.3135 1.25619 13.6143 1.75885 14.8278C2.26151 16.0413 2.99902 17.1435 3.92901 18.071C4.85656 19.001 5.95874 19.7385 7.17222 20.2411C8.38569 20.7438 9.68654 21.0017 11 21V21Z" stroke="#1F1F1F" stroke-width="1" stroke-linejoin="round"/>
<path fill-rule="evenodd" clip-rule="evenodd" d="M11 18C11.2652 18 11.5196 17.8946 11.7071 17.7071C11.8946 17.5196 12 17.2652 12 17C12 16.7348 11.8946 16.4804 11.7071 16.2929C11.5196 16.1054 11.2652 16 11 16C10.7348 16 10.4804 16.1054 10.2929 16.2929C10.1054 16.4804 10 16.7348 10 17C10 17.2652 10.1054 17.5196 10.2929 17.7071C10.4804 17.8946 10.7348 18 11 18Z" fill="#1F1F1F"/>
<path d="M11 5V13" stroke="#1F1F1F" stroke-width="2" stroke-linecap="round" stroke-linejoin="round"/>
</svg>
