<svg width="32" height="31" viewBox="0 0 32 31" xmlns="http://www.w3.org/2000/svg">
<mask id="path-1-outside-1_990_42279" maskUnits="userSpaceOnUse" x="0" y="-0.5" width="32" height="32" fill="black">
<rect fill="white" y="-0.5" width="32" height="32"/>
<path fill-rule="evenodd" clip-rule="evenodd" d="M9.33391 0.552508C8.71367 0.614962 8.11587 0.757203 7.35687 1.02291C6.98467 1.15321 6.37541 1.41648 6.15587 1.54191C6.11522 1.56515 6.03207 1.60887 5.9711 1.63914C5.60806 1.81918 4.88332 2.32854 4.3813 2.75644C3.39393 3.59802 2.50522 4.77042 1.96066 5.94974C1.87622 6.13267 1.79034 6.31386 1.76983 6.35236C1.70114 6.48138 1.4415 7.25407 1.32151 7.68663C0.957254 8.99939 0.897609 10.7152 1.16767 12.1098C1.29254 12.7546 1.38677 13.0929 1.64951 13.8397C1.8192 14.322 2.27311 15.2048 2.61091 15.7096C2.7619 15.9352 2.88544 16.1486 2.88544 16.1838C2.88544 16.219 2.83001 16.3171 2.76227 16.4018C2.43708 16.8086 2.29089 17.2091 2.26587 17.7617C2.24351 18.2556 2.29835 18.5768 2.46487 18.9278C2.66445 19.3484 3.15443 19.9186 3.56909 20.2127C4.03334 20.5421 4.4357 20.6552 5.06572 20.6332L5.41679 20.6209L5.40356 21.0106C5.38283 21.621 5.54394 22.1634 5.88049 22.6165C6.0746 22.8778 6.57263 23.3754 6.78065 23.5158C7.23296 23.821 7.6511 23.9402 8.20681 23.9224L8.59483 23.91L8.59845 24.4458C8.60178 24.9327 8.61102 25.0045 8.69978 25.2311C8.85732 25.6334 9.01552 25.8804 9.33147 26.2173C9.82865 26.7473 10.117 26.9514 10.5903 27.1082C10.8028 27.1785 10.9316 27.1943 11.3109 27.1964L11.7729 27.199L11.767 27.3283C11.737 27.9852 11.7766 28.2828 11.9491 28.6957C12.0807 29.0105 12.2158 29.1975 12.5926 29.5858C13.0663 30.0739 13.3177 30.2424 13.8053 30.3983C13.9963 30.4593 14.5329 30.4805 14.8063 30.4377C15.098 30.3921 15.3356 30.2981 15.626 30.1131C15.7332 30.0449 15.843 29.9891 15.8702 29.9891C15.8973 29.9891 15.9926 30.0447 16.0819 30.1126C16.5335 30.4561 17.1353 30.5784 17.7437 30.4504C18.1845 30.3577 18.4062 30.2161 18.9244 29.696C19.3045 29.3146 19.4145 29.1786 19.5395 28.9359C19.7195 28.5861 19.8217 28.1279 19.8039 27.7501L19.7919 27.4946L20.2169 27.4709C21.0023 27.4271 21.338 27.2417 22.083 26.4403C22.5419 25.9467 22.7454 25.4342 22.7235 24.8277C22.7168 24.6414 22.724 24.4761 22.7396 24.4606C22.7552 24.445 22.9465 24.43 23.1646 24.4274C23.5756 24.4224 23.8529 24.3523 24.1709 24.1729C24.5243 23.9737 25.2133 23.2527 25.4187 22.8674C25.5872 22.5512 25.6962 22.0619 25.6803 21.6929L25.6676 21.397L25.8339 21.4028C25.9253 21.4061 26.1549 21.3923 26.3439 21.3722C26.9067 21.3125 27.2239 21.1309 27.795 20.5413C28.2649 20.0562 28.3626 19.9043 28.5164 19.4199C28.7068 18.8197 28.5802 18.0376 28.213 17.5469C28.1646 17.4822 28.125 17.4006 28.125 17.3655C28.125 17.3305 28.2387 17.1755 28.3776 17.0212C29.0816 16.2394 29.5699 15.5245 30.0067 14.6361C30.1671 14.3098 30.3156 13.9847 30.3367 13.9136C30.3579 13.8424 30.4184 13.6678 30.4712 13.5255C30.6917 12.9315 30.9062 11.9191 30.9724 11.1604C31.0223 10.5881 31.0017 9.39093 30.9336 8.90615C30.7197 7.3829 30.2163 6.03958 29.3756 4.74869C28.7249 3.74957 27.8648 2.87536 26.7392 2.06896C26.2184 1.69579 25.2357 1.2085 24.5405 0.978638C23.4733 0.625753 22.6778 0.497667 21.5685 0.500032C20.1233 0.503173 18.9081 0.76888 17.6741 1.35166C17.5053 1.43138 17.3611 1.49664 17.3537 1.49664C17.3174 1.49664 16.6579 1.89465 16.401 2.07162C16.1895 2.2173 16.0749 2.2727 15.9849 2.2727C15.9166 2.2727 15.8518 2.2584 15.841 2.24088C15.8203 2.20744 15.2071 1.79228 15.1784 1.79228C15.1692 1.79228 15.0561 1.72887 14.927 1.65137C14.0338 1.11519 12.5283 0.636914 11.4199 0.537246C10.8737 0.488132 9.90267 0.495227 9.33391 0.552508ZM11.9761 1.26992C12.6159 1.39945 13.26 1.58589 13.6575 1.75662C14.3395 2.04953 15.04 2.44011 15.5404 2.80655C15.6837 2.91143 15.8776 3.04148 15.9713 3.09551C16.0651 3.14953 16.196 3.25674 16.2623 3.33376C16.3286 3.41073 16.6512 3.74813 16.9791 4.0835C17.307 4.41887 18.0174 5.15058 18.5578 5.70953C19.0983 6.26848 20.3926 7.60718 21.434 8.68442C22.4755 9.76167 23.3731 10.7096 23.4287 10.7909C23.6414 11.1021 23.7092 11.3446 23.7075 11.7887C23.7062 12.1455 23.6937 12.2246 23.6055 12.4358C23.4198 12.8801 23.1528 13.1547 22.6743 13.3934C22.5088 13.4759 22.4433 13.4856 22.0461 13.4867C21.6539 13.4877 21.5856 13.4783 21.4554 13.4051C21.3744 13.3595 21.2923 13.3223 21.273 13.3223C21.2061 13.3223 20.8644 13.007 20.2927 12.4176C19.9768 12.092 19.4523 11.5519 19.1269 11.2173C18.8016 10.8827 18.5188 10.5901 18.4985 10.567C18.4782 10.5439 17.9869 10.036 17.4069 9.43842C16.8268 8.84078 15.7983 7.7781 15.1213 7.07687C13.3734 5.26647 13.3343 5.22911 13.1865 5.22911C13.048 5.22911 12.9734 5.27357 12.6598 5.54308C12.0007 6.10935 11.2949 6.43951 10.4056 6.5976C9.54728 6.75019 8.55292 6.63463 7.80032 6.29486C7.24287 6.04316 6.90522 5.81914 6.4168 5.3769C6.00964 5.00827 5.93108 4.98033 5.76064 5.14364C5.55573 5.33994 5.63833 5.54283 6.08421 5.93865C6.86549 6.63219 7.64777 7.02244 8.67776 7.23249C9.23195 7.3455 10.0582 7.34376 10.6088 7.22843C11.0192 7.14247 11.4408 7.0122 11.6251 6.91442C11.7528 6.84664 11.9022 6.83644 11.9022 6.8955C11.9022 6.91771 11.416 7.43737 10.8217 8.05035C10.2274 8.66332 9.72437 9.1835 9.70382 9.2063C9.68331 9.22914 9.38476 9.53679 9.04042 9.88997C7.91004 11.0495 4.74537 14.3171 3.75667 15.3456C3.59547 15.5133 3.43483 15.6505 3.39969 15.6505C3.36458 15.6505 3.27929 15.5715 3.21023 15.4749C3.09822 15.3183 2.62676 14.521 2.62676 14.4882C2.62676 14.481 2.5618 14.3363 2.48238 14.1666C1.82822 12.769 1.55336 11.2491 1.66104 9.62493C1.71858 8.75674 1.82198 8.19961 2.07907 7.37251C2.23239 6.87916 2.32817 6.6452 2.60858 6.07908C2.933 5.42412 3.2283 4.95916 3.66288 4.41887C4.44767 3.44314 5.41631 2.65411 6.5195 2.09195C6.93903 1.8782 7.08193 1.81667 7.61555 1.62014C8.04481 1.46205 8.85521 1.27384 9.48173 1.18673C9.5427 1.17827 10.0416 1.17583 10.5903 1.18134C11.4343 1.1898 11.6479 1.20347 11.9761 1.26992ZM23.1369 1.28418C23.3913 1.334 23.6573 1.39268 23.7282 1.4146C24.6274 1.69294 24.8045 1.75935 25.3411 2.01955C28.162 3.38749 30.0903 6.23969 30.3469 9.42353C30.3912 9.97327 30.3689 11.1476 30.307 11.53C30.1894 12.2562 30.0459 12.8776 29.9188 13.2114C29.8917 13.2826 29.8162 13.4821 29.7511 13.6549C29.4577 14.4339 28.9164 15.3753 28.3806 16.0385C28.0787 16.4121 27.6817 16.833 27.6312 16.833C27.6072 16.833 27.4383 16.682 27.2558 16.4973C27.0733 16.3127 26.8325 16.0908 26.7208 16.0041C25.9873 15.4356 24.986 15.4367 24.2397 16.0067C23.9086 16.2596 23.3785 16.8484 23.2335 17.1242C23.0444 17.4841 22.941 17.9197 22.9569 18.2885L22.9699 18.5884L22.545 18.6121C21.8007 18.6536 21.5501 18.7788 20.8994 19.4339C20.3833 19.9536 20.2521 20.1498 20.1096 20.6156C20.0521 20.8035 20.0321 20.9681 20.0321 21.2531C20.0321 21.4643 20.0196 21.6385 20.0044 21.6402C19.9891 21.6418 19.8004 21.6472 19.5849 21.6521C18.9147 21.6674 18.5442 21.8525 17.9338 22.4773C17.3107 23.1151 17.0987 23.5707 17.0953 24.2795L17.0933 24.686L16.8905 24.679C16.5739 24.6679 16.1172 24.7396 15.8873 24.8363C15.5716 24.9692 15.394 25.1045 14.9844 25.5237C14.5656 25.9525 14.3554 26.2787 14.2296 26.6956C14.0788 27.1953 14.1656 27.8918 14.44 28.3827C14.5279 28.54 15.0328 29.109 15.2385 29.2826C15.407 29.4248 15.3671 29.537 15.1016 29.6676C14.6554 29.8871 14.1684 29.882 13.6851 29.6527C13.4919 29.561 13.3557 29.4533 13.0801 29.1739C12.6995 28.788 12.5262 28.5185 12.4367 28.1732C12.3315 27.7672 12.3897 27.2719 12.5889 26.8789C12.6471 26.7641 12.9494 26.4238 13.4453 25.9151C13.8669 25.4827 14.8931 24.4222 15.7258 23.5586C17.5863 21.6289 17.8072 21.4004 19.4428 19.7155C22.2648 16.8085 22.2976 16.7738 22.3361 16.6622C22.4068 16.4568 22.2593 16.2418 22.0477 16.2418C21.8877 16.2418 21.9173 16.2127 19.2549 18.9764C18.6968 19.5557 17.9654 20.3124 17.6295 20.6579C16.8576 21.4518 14.9277 23.446 14.25 24.1499C13.7458 24.6736 12.8152 25.6306 12.4301 26.0215C12.1906 26.2646 12.0244 26.37 11.7195 26.4723C11.2934 26.6153 10.7872 26.556 10.3778 26.3151C10.2025 26.2119 9.76354 25.7776 9.56096 25.5069C9.11418 24.9099 9.09415 24.0807 9.51173 23.4662C9.56362 23.3898 9.78593 23.1425 10.0057 22.9165C10.2255 22.6905 10.6711 22.2313 10.9958 21.8959C11.3206 21.5605 11.8611 21.0028 12.1969 20.6565C13.461 19.353 13.8264 18.9754 15.9504 16.7776C17.1486 15.5378 18.3362 14.3104 18.5895 14.0499C18.8428 13.7895 19.089 13.5217 19.1367 13.4548C19.2442 13.3036 19.2208 13.1767 19.0605 13.0417C18.8677 12.8795 18.784 12.9242 18.2421 13.4792C17.21 14.5366 16.6461 15.1182 15.6893 16.1124C15.1416 16.6815 14.4104 17.438 14.0646 17.7935C13.3428 18.5354 12.4605 19.4461 11.7907 20.1405C9.48294 22.5332 9.05291 22.9627 8.85063 23.0769C8.73895 23.1399 8.53364 23.2086 8.35651 23.2422C8.08158 23.2944 8.02714 23.2943 7.76983 23.2414C7.61385 23.2094 7.40306 23.1395 7.30144 23.0862C7.06848 22.9639 6.40767 22.3074 6.2729 22.0644C6.15346 21.849 6.02653 21.3908 6.02653 21.1751C6.02653 20.9743 6.13961 20.5536 6.25143 20.3383C6.36048 20.1283 6.58084 19.8949 9.63087 16.7591C9.93729 16.4441 10.3866 15.9793 10.6294 15.7263C10.8721 15.4733 11.3784 14.9495 11.7544 14.5623C13.7637 12.4931 15.5341 10.663 15.7727 10.4085C15.9786 10.1888 16.0032 10.1463 16.0036 10.0089C16.004 9.88221 15.984 9.8382 15.8904 9.75941C15.7554 9.64577 15.6754 9.63945 15.5564 9.73306C15.4627 9.80679 14.584 10.6987 13.7315 11.5854C13.4481 11.8801 12.9414 12.4044 12.6054 12.7503C12.2695 13.0964 11.7534 13.6285 11.4587 13.9329C11.164 14.2373 10.4489 14.9747 9.86971 15.5716C9.29045 16.1685 8.80824 16.6695 8.79808 16.6849C8.77058 16.7268 6.66265 18.8945 6.1926 19.3644C5.84364 19.7132 5.74919 19.7863 5.52743 19.879C5.2985 19.9747 5.22573 19.987 4.89019 19.9867C4.52091 19.9864 4.50373 19.9825 4.203 19.8335C3.94125 19.7038 3.83889 19.6229 3.52737 19.2994C3.0225 18.7752 2.88725 18.4805 2.88725 17.9047C2.88725 17.5692 2.92727 17.3832 3.05971 17.1035C3.16751 16.8758 3.2028 16.8373 5.11975 14.8549C5.70994 14.2446 6.65818 13.2634 7.22694 12.6745C7.79574 12.0857 8.5278 11.3295 8.85377 10.9941C9.1797 10.6588 9.72045 10.1014 10.0553 9.7556C10.3902 9.40981 10.9303 8.85235 11.2555 8.51679C11.5807 8.18124 12.0556 7.69088 12.3108 7.4271C12.5659 7.16335 12.7961 6.89479 12.8221 6.83034C12.8652 6.72388 12.8605 6.69782 12.771 6.5449L12.6724 6.37664L12.7769 6.2786C12.8344 6.22465 12.9453 6.13795 13.0232 6.08588L13.1649 5.9912L13.6904 6.5248C13.9794 6.8183 14.7046 7.5656 15.3019 8.18553C15.8992 8.80545 16.6061 9.53716 16.8728 9.81155C17.1395 10.0859 17.6394 10.6014 17.9835 10.9569C20.3774 13.4299 20.6101 13.6617 20.8451 13.8066C21.6034 14.2742 22.5225 14.2767 23.2608 13.8131C23.517 13.6521 23.9292 13.2124 24.0498 12.9712C24.2273 12.6162 24.3218 12.2959 24.3435 11.9759C24.3666 11.6368 24.3119 11.1782 24.2235 10.9693C24.0093 10.463 23.8896 10.2994 23.2588 9.64962C22.9983 9.38129 22.3362 8.69702 21.7874 8.1291C19.123 5.37157 18.5641 4.79385 17.9804 4.19437C16.7629 2.94388 16.6508 2.82159 16.6508 2.74402C16.6508 2.68826 16.7355 2.61457 16.9649 2.47085C17.3269 2.24406 18.1373 1.83563 18.4615 1.71656C18.5835 1.67177 18.7415 1.61227 18.8126 1.58441C19.0645 1.48559 20.0668 1.25861 20.5679 1.18688C20.6289 1.17812 21.1278 1.17609 21.6765 1.1823C22.5559 1.19228 22.7292 1.20436 23.1369 1.28418ZM26.1144 16.3802C26.2383 16.4437 26.4298 16.584 26.54 16.6921C27.0388 17.1809 27.6436 17.8307 27.7359 17.9768C27.985 18.3716 28.0448 18.8539 27.8975 19.2812C27.7854 19.6063 27.7036 19.7226 27.2891 20.1448C26.7984 20.6446 26.6321 20.7259 26.0925 20.7293C25.7339 20.7316 25.6891 20.7237 25.5013 20.6252C25.3895 20.5665 25.2648 20.4917 25.2241 20.4589C25.0446 20.314 23.9095 19.1184 23.8263 18.9867C23.7078 18.7988 23.5797 18.3836 23.5797 18.1871C23.5797 17.9841 23.6971 17.5818 23.8151 17.3805C23.9717 17.1131 24.5692 16.5218 24.7992 16.4066C25.1031 16.2542 25.1567 16.2432 25.5382 16.2545C25.8472 16.2636 25.9163 16.2787 26.1144 16.3802ZM22.9567 19.325C23.2517 19.4145 23.4313 19.5585 24.0786 20.2245C24.7697 20.9357 24.8863 21.0927 24.9887 21.4506C25.0809 21.7729 25.0758 21.9778 24.9681 22.2947C24.8516 22.6371 24.7342 22.8014 24.3094 23.2166C23.8682 23.6478 23.6588 23.7545 23.2146 23.7746C22.9468 23.7867 22.8696 23.7751 22.6419 23.6884C22.3893 23.5924 22.3506 23.5598 21.6823 22.8807C21.2994 22.4915 20.943 22.1065 20.8905 22.0252C20.6646 21.6755 20.5967 21.1316 20.7304 20.7429C20.829 20.4564 20.9366 20.3004 21.3037 19.9117C21.758 19.4309 22.044 19.2822 22.5265 19.2761C22.6688 19.2743 22.8624 19.2963 22.9567 19.325ZM20.1333 22.399C20.368 22.4897 20.4254 22.5386 21.0795 23.2028C21.4625 23.5917 21.8186 23.9763 21.8708 24.0574C22.1628 24.5107 22.1718 25.1744 21.8925 25.6546C21.7485 25.9022 21.1395 26.5213 20.9285 26.6346C20.8318 26.6865 20.6321 26.7559 20.4847 26.7889C20.2451 26.8425 20.1893 26.8431 19.9592 26.7952C19.8176 26.7656 19.6223 26.6958 19.5251 26.6399C19.3463 26.5371 18.1315 25.3232 17.9692 25.0851C17.8541 24.9163 17.7431 24.5848 17.7163 24.3298C17.6896 24.0763 17.8008 23.6673 17.968 23.4044C18.0285 23.3092 18.2488 23.0668 18.4577 22.8656C18.7616 22.5729 18.8848 22.4805 19.0745 22.4029C19.4076 22.2667 19.7875 22.2653 20.1333 22.399ZM17.281 25.4722C17.4547 25.5599 17.6372 25.7198 18.0987 26.1888C18.9691 27.0732 19.0166 27.1376 19.1256 27.5826C19.1824 27.8145 19.1858 27.8901 19.1494 28.1171C19.1257 28.2645 19.056 28.4833 18.9918 28.6113C18.842 28.9103 18.2515 29.5221 17.9442 29.6968C17.725 29.8213 17.7174 29.8227 17.279 29.8206C16.8483 29.8184 16.8295 29.8149 16.6233 29.6978C16.3953 29.5683 15.2838 28.4747 15.0594 28.159C14.6995 27.6528 14.694 26.9442 15.046 26.4229C15.2365 26.1407 15.7918 25.6042 16.0041 25.4971C16.2888 25.3536 16.3857 25.334 16.7433 25.3475C17.0059 25.3574 17.0941 25.3779 17.281 25.4722Z"/>
</mask>
<path fill-rule="evenodd" clip-rule="evenodd" d="M9.33391 0.552508C8.71367 0.614962 8.11587 0.757203 7.35687 1.02291C6.98467 1.15321 6.37541 1.41648 6.15587 1.54191C6.11522 1.56515 6.03207 1.60887 5.9711 1.63914C5.60806 1.81918 4.88332 2.32854 4.3813 2.75644C3.39393 3.59802 2.50522 4.77042 1.96066 5.94974C1.87622 6.13267 1.79034 6.31386 1.76983 6.35236C1.70114 6.48138 1.4415 7.25407 1.32151 7.68663C0.957254 8.99939 0.897609 10.7152 1.16767 12.1098C1.29254 12.7546 1.38677 13.0929 1.64951 13.8397C1.8192 14.322 2.27311 15.2048 2.61091 15.7096C2.7619 15.9352 2.88544 16.1486 2.88544 16.1838C2.88544 16.219 2.83001 16.3171 2.76227 16.4018C2.43708 16.8086 2.29089 17.2091 2.26587 17.7617C2.24351 18.2556 2.29835 18.5768 2.46487 18.9278C2.66445 19.3484 3.15443 19.9186 3.56909 20.2127C4.03334 20.5421 4.4357 20.6552 5.06572 20.6332L5.41679 20.6209L5.40356 21.0106C5.38283 21.621 5.54394 22.1634 5.88049 22.6165C6.0746 22.8778 6.57263 23.3754 6.78065 23.5158C7.23296 23.821 7.6511 23.9402 8.20681 23.9224L8.59483 23.91L8.59845 24.4458C8.60178 24.9327 8.61102 25.0045 8.69978 25.2311C8.85732 25.6334 9.01552 25.8804 9.33147 26.2173C9.82865 26.7473 10.117 26.9514 10.5903 27.1082C10.8028 27.1785 10.9316 27.1943 11.3109 27.1964L11.7729 27.199L11.767 27.3283C11.737 27.9852 11.7766 28.2828 11.9491 28.6957C12.0807 29.0105 12.2158 29.1975 12.5926 29.5858C13.0663 30.0739 13.3177 30.2424 13.8053 30.3983C13.9963 30.4593 14.5329 30.4805 14.8063 30.4377C15.098 30.3921 15.3356 30.2981 15.626 30.1131C15.7332 30.0449 15.843 29.9891 15.8702 29.9891C15.8973 29.9891 15.9926 30.0447 16.0819 30.1126C16.5335 30.4561 17.1353 30.5784 17.7437 30.4504C18.1845 30.3577 18.4062 30.2161 18.9244 29.696C19.3045 29.3146 19.4145 29.1786 19.5395 28.9359C19.7195 28.5861 19.8217 28.1279 19.8039 27.7501L19.7919 27.4946L20.2169 27.4709C21.0023 27.4271 21.338 27.2417 22.083 26.4403C22.5419 25.9467 22.7454 25.4342 22.7235 24.8277C22.7168 24.6414 22.724 24.4761 22.7396 24.4606C22.7552 24.445 22.9465 24.43 23.1646 24.4274C23.5756 24.4224 23.8529 24.3523 24.1709 24.1729C24.5243 23.9737 25.2133 23.2527 25.4187 22.8674C25.5872 22.5512 25.6962 22.0619 25.6803 21.6929L25.6676 21.397L25.8339 21.4028C25.9253 21.4061 26.1549 21.3923 26.3439 21.3722C26.9067 21.3125 27.2239 21.1309 27.795 20.5413C28.2649 20.0562 28.3626 19.9043 28.5164 19.4199C28.7068 18.8197 28.5802 18.0376 28.213 17.5469C28.1646 17.4822 28.125 17.4006 28.125 17.3655C28.125 17.3305 28.2387 17.1755 28.3776 17.0212C29.0816 16.2394 29.5699 15.5245 30.0067 14.6361C30.1671 14.3098 30.3156 13.9847 30.3367 13.9136C30.3579 13.8424 30.4184 13.6678 30.4712 13.5255C30.6917 12.9315 30.9062 11.9191 30.9724 11.1604C31.0223 10.5881 31.0017 9.39093 30.9336 8.90615C30.7197 7.3829 30.2163 6.03958 29.3756 4.74869C28.7249 3.74957 27.8648 2.87536 26.7392 2.06896C26.2184 1.69579 25.2357 1.2085 24.5405 0.978638C23.4733 0.625753 22.6778 0.497667 21.5685 0.500032C20.1233 0.503173 18.9081 0.76888 17.6741 1.35166C17.5053 1.43138 17.3611 1.49664 17.3537 1.49664C17.3174 1.49664 16.6579 1.89465 16.401 2.07162C16.1895 2.2173 16.0749 2.2727 15.9849 2.2727C15.9166 2.2727 15.8518 2.2584 15.841 2.24088C15.8203 2.20744 15.2071 1.79228 15.1784 1.79228C15.1692 1.79228 15.0561 1.72887 14.927 1.65137C14.0338 1.11519 12.5283 0.636914 11.4199 0.537246C10.8737 0.488132 9.90267 0.495227 9.33391 0.552508ZM11.9761 1.26992C12.6159 1.39945 13.26 1.58589 13.6575 1.75662C14.3395 2.04953 15.04 2.44011 15.5404 2.80655C15.6837 2.91143 15.8776 3.04148 15.9713 3.09551C16.0651 3.14953 16.196 3.25674 16.2623 3.33376C16.3286 3.41073 16.6512 3.74813 16.9791 4.0835C17.307 4.41887 18.0174 5.15058 18.5578 5.70953C19.0983 6.26848 20.3926 7.60718 21.434 8.68442C22.4755 9.76167 23.3731 10.7096 23.4287 10.7909C23.6414 11.1021 23.7092 11.3446 23.7075 11.7887C23.7062 12.1455 23.6937 12.2246 23.6055 12.4358C23.4198 12.8801 23.1528 13.1547 22.6743 13.3934C22.5088 13.4759 22.4433 13.4856 22.0461 13.4867C21.6539 13.4877 21.5856 13.4783 21.4554 13.4051C21.3744 13.3595 21.2923 13.3223 21.273 13.3223C21.2061 13.3223 20.8644 13.007 20.2927 12.4176C19.9768 12.092 19.4523 11.5519 19.1269 11.2173C18.8016 10.8827 18.5188 10.5901 18.4985 10.567C18.4782 10.5439 17.9869 10.036 17.4069 9.43842C16.8268 8.84078 15.7983 7.7781 15.1213 7.07687C13.3734 5.26647 13.3343 5.22911 13.1865 5.22911C13.048 5.22911 12.9734 5.27357 12.6598 5.54308C12.0007 6.10935 11.2949 6.43951 10.4056 6.5976C9.54728 6.75019 8.55292 6.63463 7.80032 6.29486C7.24287 6.04316 6.90522 5.81914 6.4168 5.3769C6.00964 5.00827 5.93108 4.98033 5.76064 5.14364C5.55573 5.33994 5.63833 5.54283 6.08421 5.93865C6.86549 6.63219 7.64777 7.02244 8.67776 7.23249C9.23195 7.3455 10.0582 7.34376 10.6088 7.22843C11.0192 7.14247 11.4408 7.0122 11.6251 6.91442C11.7528 6.84664 11.9022 6.83644 11.9022 6.8955C11.9022 6.91771 11.416 7.43737 10.8217 8.05035C10.2274 8.66332 9.72437 9.1835 9.70382 9.2063C9.68331 9.22914 9.38476 9.53679 9.04042 9.88997C7.91004 11.0495 4.74537 14.3171 3.75667 15.3456C3.59547 15.5133 3.43483 15.6505 3.39969 15.6505C3.36458 15.6505 3.27929 15.5715 3.21023 15.4749C3.09822 15.3183 2.62676 14.521 2.62676 14.4882C2.62676 14.481 2.5618 14.3363 2.48238 14.1666C1.82822 12.769 1.55336 11.2491 1.66104 9.62493C1.71858 8.75674 1.82198 8.19961 2.07907 7.37251C2.23239 6.87916 2.32817 6.6452 2.60858 6.07908C2.933 5.42412 3.2283 4.95916 3.66288 4.41887C4.44767 3.44314 5.41631 2.65411 6.5195 2.09195C6.93903 1.8782 7.08193 1.81667 7.61555 1.62014C8.04481 1.46205 8.85521 1.27384 9.48173 1.18673C9.5427 1.17827 10.0416 1.17583 10.5903 1.18134C11.4343 1.1898 11.6479 1.20347 11.9761 1.26992ZM23.1369 1.28418C23.3913 1.334 23.6573 1.39268 23.7282 1.4146C24.6274 1.69294 24.8045 1.75935 25.3411 2.01955C28.162 3.38749 30.0903 6.23969 30.3469 9.42353C30.3912 9.97327 30.3689 11.1476 30.307 11.53C30.1894 12.2562 30.0459 12.8776 29.9188 13.2114C29.8917 13.2826 29.8162 13.4821 29.7511 13.6549C29.4577 14.4339 28.9164 15.3753 28.3806 16.0385C28.0787 16.4121 27.6817 16.833 27.6312 16.833C27.6072 16.833 27.4383 16.682 27.2558 16.4973C27.0733 16.3127 26.8325 16.0908 26.7208 16.0041C25.9873 15.4356 24.986 15.4367 24.2397 16.0067C23.9086 16.2596 23.3785 16.8484 23.2335 17.1242C23.0444 17.4841 22.941 17.9197 22.9569 18.2885L22.9699 18.5884L22.545 18.6121C21.8007 18.6536 21.5501 18.7788 20.8994 19.4339C20.3833 19.9536 20.2521 20.1498 20.1096 20.6156C20.0521 20.8035 20.0321 20.9681 20.0321 21.2531C20.0321 21.4643 20.0196 21.6385 20.0044 21.6402C19.9891 21.6418 19.8004 21.6472 19.5849 21.6521C18.9147 21.6674 18.5442 21.8525 17.9338 22.4773C17.3107 23.1151 17.0987 23.5707 17.0953 24.2795L17.0933 24.686L16.8905 24.679C16.5739 24.6679 16.1172 24.7396 15.8873 24.8363C15.5716 24.9692 15.394 25.1045 14.9844 25.5237C14.5656 25.9525 14.3554 26.2787 14.2296 26.6956C14.0788 27.1953 14.1656 27.8918 14.44 28.3827C14.5279 28.54 15.0328 29.109 15.2385 29.2826C15.407 29.4248 15.3671 29.537 15.1016 29.6676C14.6554 29.8871 14.1684 29.882 13.6851 29.6527C13.4919 29.561 13.3557 29.4533 13.0801 29.1739C12.6995 28.788 12.5262 28.5185 12.4367 28.1732C12.3315 27.7672 12.3897 27.2719 12.5889 26.8789C12.6471 26.7641 12.9494 26.4238 13.4453 25.9151C13.8669 25.4827 14.8931 24.4222 15.7258 23.5586C17.5863 21.6289 17.8072 21.4004 19.4428 19.7155C22.2648 16.8085 22.2976 16.7738 22.3361 16.6622C22.4068 16.4568 22.2593 16.2418 22.0477 16.2418C21.8877 16.2418 21.9173 16.2127 19.2549 18.9764C18.6968 19.5557 17.9654 20.3124 17.6295 20.6579C16.8576 21.4518 14.9277 23.446 14.25 24.1499C13.7458 24.6736 12.8152 25.6306 12.4301 26.0215C12.1906 26.2646 12.0244 26.37 11.7195 26.4723C11.2934 26.6153 10.7872 26.556 10.3778 26.3151C10.2025 26.2119 9.76354 25.7776 9.56096 25.5069C9.11418 24.9099 9.09415 24.0807 9.51173 23.4662C9.56362 23.3898 9.78593 23.1425 10.0057 22.9165C10.2255 22.6905 10.6711 22.2313 10.9958 21.8959C11.3206 21.5605 11.8611 21.0028 12.1969 20.6565C13.461 19.353 13.8264 18.9754 15.9504 16.7776C17.1486 15.5378 18.3362 14.3104 18.5895 14.0499C18.8428 13.7895 19.089 13.5217 19.1367 13.4548C19.2442 13.3036 19.2208 13.1767 19.0605 13.0417C18.8677 12.8795 18.784 12.9242 18.2421 13.4792C17.21 14.5366 16.6461 15.1182 15.6893 16.1124C15.1416 16.6815 14.4104 17.438 14.0646 17.7935C13.3428 18.5354 12.4605 19.4461 11.7907 20.1405C9.48294 22.5332 9.05291 22.9627 8.85063 23.0769C8.73895 23.1399 8.53364 23.2086 8.35651 23.2422C8.08158 23.2944 8.02714 23.2943 7.76983 23.2414C7.61385 23.2094 7.40306 23.1395 7.30144 23.0862C7.06848 22.9639 6.40767 22.3074 6.2729 22.0644C6.15346 21.849 6.02653 21.3908 6.02653 21.1751C6.02653 20.9743 6.13961 20.5536 6.25143 20.3383C6.36048 20.1283 6.58084 19.8949 9.63087 16.7591C9.93729 16.4441 10.3866 15.9793 10.6294 15.7263C10.8721 15.4733 11.3784 14.9495 11.7544 14.5623C13.7637 12.4931 15.5341 10.663 15.7727 10.4085C15.9786 10.1888 16.0032 10.1463 16.0036 10.0089C16.004 9.88221 15.984 9.8382 15.8904 9.75941C15.7554 9.64577 15.6754 9.63945 15.5564 9.73306C15.4627 9.80679 14.584 10.6987 13.7315 11.5854C13.4481 11.8801 12.9414 12.4044 12.6054 12.7503C12.2695 13.0964 11.7534 13.6285 11.4587 13.9329C11.164 14.2373 10.4489 14.9747 9.86971 15.5716C9.29045 16.1685 8.80824 16.6695 8.79808 16.6849C8.77058 16.7268 6.66265 18.8945 6.1926 19.3644C5.84364 19.7132 5.74919 19.7863 5.52743 19.879C5.2985 19.9747 5.22573 19.987 4.89019 19.9867C4.52091 19.9864 4.50373 19.9825 4.203 19.8335C3.94125 19.7038 3.83889 19.6229 3.52737 19.2994C3.0225 18.7752 2.88725 18.4805 2.88725 17.9047C2.88725 17.5692 2.92727 17.3832 3.05971 17.1035C3.16751 16.8758 3.2028 16.8373 5.11975 14.8549C5.70994 14.2446 6.65818 13.2634 7.22694 12.6745C7.79574 12.0857 8.5278 11.3295 8.85377 10.9941C9.1797 10.6588 9.72045 10.1014 10.0553 9.7556C10.3902 9.40981 10.9303 8.85235 11.2555 8.51679C11.5807 8.18124 12.0556 7.69088 12.3108 7.4271C12.5659 7.16335 12.7961 6.89479 12.8221 6.83034C12.8652 6.72388 12.8605 6.69782 12.771 6.5449L12.6724 6.37664L12.7769 6.2786C12.8344 6.22465 12.9453 6.13795 13.0232 6.08588L13.1649 5.9912L13.6904 6.5248C13.9794 6.8183 14.7046 7.5656 15.3019 8.18553C15.8992 8.80545 16.6061 9.53716 16.8728 9.81155C17.1395 10.0859 17.6394 10.6014 17.9835 10.9569C20.3774 13.4299 20.6101 13.6617 20.8451 13.8066C21.6034 14.2742 22.5225 14.2767 23.2608 13.8131C23.517 13.6521 23.9292 13.2124 24.0498 12.9712C24.2273 12.6162 24.3218 12.2959 24.3435 11.9759C24.3666 11.6368 24.3119 11.1782 24.2235 10.9693C24.0093 10.463 23.8896 10.2994 23.2588 9.64962C22.9983 9.38129 22.3362 8.69702 21.7874 8.1291C19.123 5.37157 18.5641 4.79385 17.9804 4.19437C16.7629 2.94388 16.6508 2.82159 16.6508 2.74402C16.6508 2.68826 16.7355 2.61457 16.9649 2.47085C17.3269 2.24406 18.1373 1.83563 18.4615 1.71656C18.5835 1.67177 18.7415 1.61227 18.8126 1.58441C19.0645 1.48559 20.0668 1.25861 20.5679 1.18688C20.6289 1.17812 21.1278 1.17609 21.6765 1.1823C22.5559 1.19228 22.7292 1.20436 23.1369 1.28418ZM26.1144 16.3802C26.2383 16.4437 26.4298 16.584 26.54 16.6921C27.0388 17.1809 27.6436 17.8307 27.7359 17.9768C27.985 18.3716 28.0448 18.8539 27.8975 19.2812C27.7854 19.6063 27.7036 19.7226 27.2891 20.1448C26.7984 20.6446 26.6321 20.7259 26.0925 20.7293C25.7339 20.7316 25.6891 20.7237 25.5013 20.6252C25.3895 20.5665 25.2648 20.4917 25.2241 20.4589C25.0446 20.314 23.9095 19.1184 23.8263 18.9867C23.7078 18.7988 23.5797 18.3836 23.5797 18.1871C23.5797 17.9841 23.6971 17.5818 23.8151 17.3805C23.9717 17.1131 24.5692 16.5218 24.7992 16.4066C25.1031 16.2542 25.1567 16.2432 25.5382 16.2545C25.8472 16.2636 25.9163 16.2787 26.1144 16.3802ZM22.9567 19.325C23.2517 19.4145 23.4313 19.5585 24.0786 20.2245C24.7697 20.9357 24.8863 21.0927 24.9887 21.4506C25.0809 21.7729 25.0758 21.9778 24.9681 22.2947C24.8516 22.6371 24.7342 22.8014 24.3094 23.2166C23.8682 23.6478 23.6588 23.7545 23.2146 23.7746C22.9468 23.7867 22.8696 23.7751 22.6419 23.6884C22.3893 23.5924 22.3506 23.5598 21.6823 22.8807C21.2994 22.4915 20.943 22.1065 20.8905 22.0252C20.6646 21.6755 20.5967 21.1316 20.7304 20.7429C20.829 20.4564 20.9366 20.3004 21.3037 19.9117C21.758 19.4309 22.044 19.2822 22.5265 19.2761C22.6688 19.2743 22.8624 19.2963 22.9567 19.325ZM20.1333 22.399C20.368 22.4897 20.4254 22.5386 21.0795 23.2028C21.4625 23.5917 21.8186 23.9763 21.8708 24.0574C22.1628 24.5107 22.1718 25.1744 21.8925 25.6546C21.7485 25.9022 21.1395 26.5213 20.9285 26.6346C20.8318 26.6865 20.6321 26.7559 20.4847 26.7889C20.2451 26.8425 20.1893 26.8431 19.9592 26.7952C19.8176 26.7656 19.6223 26.6958 19.5251 26.6399C19.3463 26.5371 18.1315 25.3232 17.9692 25.0851C17.8541 24.9163 17.7431 24.5848 17.7163 24.3298C17.6896 24.0763 17.8008 23.6673 17.968 23.4044C18.0285 23.3092 18.2488 23.0668 18.4577 22.8656C18.7616 22.5729 18.8848 22.4805 19.0745 22.4029C19.4076 22.2667 19.7875 22.2653 20.1333 22.399ZM17.281 25.4722C17.4547 25.5599 17.6372 25.7198 18.0987 26.1888C18.9691 27.0732 19.0166 27.1376 19.1256 27.5826C19.1824 27.8145 19.1858 27.8901 19.1494 28.1171C19.1257 28.2645 19.056 28.4833 18.9918 28.6113C18.842 28.9103 18.2515 29.5221 17.9442 29.6968C17.725 29.8213 17.7174 29.8227 17.279 29.8206C16.8483 29.8184 16.8295 29.8149 16.6233 29.6978C16.3953 29.5683 15.2838 28.4747 15.0594 28.159C14.6995 27.6528 14.694 26.9442 15.046 26.4229C15.2365 26.1407 15.7918 25.6042 16.0041 25.4971C16.2888 25.3536 16.3857 25.334 16.7433 25.3475C17.0059 25.3574 17.0941 25.3779 17.281 25.4722Z" fill="white"/>
<path fill-rule="evenodd" clip-rule="evenodd" d="M9.33391 0.552508C8.71367 0.614962 8.11587 0.757203 7.35687 1.02291C6.98467 1.15321 6.37541 1.41648 6.15587 1.54191C6.11522 1.56515 6.03207 1.60887 5.9711 1.63914C5.60806 1.81918 4.88332 2.32854 4.3813 2.75644C3.39393 3.59802 2.50522 4.77042 1.96066 5.94974C1.87622 6.13267 1.79034 6.31386 1.76983 6.35236C1.70114 6.48138 1.4415 7.25407 1.32151 7.68663C0.957254 8.99939 0.897609 10.7152 1.16767 12.1098C1.29254 12.7546 1.38677 13.0929 1.64951 13.8397C1.8192 14.322 2.27311 15.2048 2.61091 15.7096C2.7619 15.9352 2.88544 16.1486 2.88544 16.1838C2.88544 16.219 2.83001 16.3171 2.76227 16.4018C2.43708 16.8086 2.29089 17.2091 2.26587 17.7617C2.24351 18.2556 2.29835 18.5768 2.46487 18.9278C2.66445 19.3484 3.15443 19.9186 3.56909 20.2127C4.03334 20.5421 4.4357 20.6552 5.06572 20.6332L5.41679 20.6209L5.40356 21.0106C5.38283 21.621 5.54394 22.1634 5.88049 22.6165C6.0746 22.8778 6.57263 23.3754 6.78065 23.5158C7.23296 23.821 7.6511 23.9402 8.20681 23.9224L8.59483 23.91L8.59845 24.4458C8.60178 24.9327 8.61102 25.0045 8.69978 25.2311C8.85732 25.6334 9.01552 25.8804 9.33147 26.2173C9.82865 26.7473 10.117 26.9514 10.5903 27.1082C10.8028 27.1785 10.9316 27.1943 11.3109 27.1964L11.7729 27.199L11.767 27.3283C11.737 27.9852 11.7766 28.2828 11.9491 28.6957C12.0807 29.0105 12.2158 29.1975 12.5926 29.5858C13.0663 30.0739 13.3177 30.2424 13.8053 30.3983C13.9963 30.4593 14.5329 30.4805 14.8063 30.4377C15.098 30.3921 15.3356 30.2981 15.626 30.1131C15.7332 30.0449 15.843 29.9891 15.8702 29.9891C15.8973 29.9891 15.9926 30.0447 16.0819 30.1126C16.5335 30.4561 17.1353 30.5784 17.7437 30.4504C18.1845 30.3577 18.4062 30.2161 18.9244 29.696C19.3045 29.3146 19.4145 29.1786 19.5395 28.9359C19.7195 28.5861 19.8217 28.1279 19.8039 27.7501L19.7919 27.4946L20.2169 27.4709C21.0023 27.4271 21.338 27.2417 22.083 26.4403C22.5419 25.9467 22.7454 25.4342 22.7235 24.8277C22.7168 24.6414 22.724 24.4761 22.7396 24.4606C22.7552 24.445 22.9465 24.43 23.1646 24.4274C23.5756 24.4224 23.8529 24.3523 24.1709 24.1729C24.5243 23.9737 25.2133 23.2527 25.4187 22.8674C25.5872 22.5512 25.6962 22.0619 25.6803 21.6929L25.6676 21.397L25.8339 21.4028C25.9253 21.4061 26.1549 21.3923 26.3439 21.3722C26.9067 21.3125 27.2239 21.1309 27.795 20.5413C28.2649 20.0562 28.3626 19.9043 28.5164 19.4199C28.7068 18.8197 28.5802 18.0376 28.213 17.5469C28.1646 17.4822 28.125 17.4006 28.125 17.3655C28.125 17.3305 28.2387 17.1755 28.3776 17.0212C29.0816 16.2394 29.5699 15.5245 30.0067 14.6361C30.1671 14.3098 30.3156 13.9847 30.3367 13.9136C30.3579 13.8424 30.4184 13.6678 30.4712 13.5255C30.6917 12.9315 30.9062 11.9191 30.9724 11.1604C31.0223 10.5881 31.0017 9.39093 30.9336 8.90615C30.7197 7.3829 30.2163 6.03958 29.3756 4.74869C28.7249 3.74957 27.8648 2.87536 26.7392 2.06896C26.2184 1.69579 25.2357 1.2085 24.5405 0.978638C23.4733 0.625753 22.6778 0.497667 21.5685 0.500032C20.1233 0.503173 18.9081 0.76888 17.6741 1.35166C17.5053 1.43138 17.3611 1.49664 17.3537 1.49664C17.3174 1.49664 16.6579 1.89465 16.401 2.07162C16.1895 2.2173 16.0749 2.2727 15.9849 2.2727C15.9166 2.2727 15.8518 2.2584 15.841 2.24088C15.8203 2.20744 15.2071 1.79228 15.1784 1.79228C15.1692 1.79228 15.0561 1.72887 14.927 1.65137C14.0338 1.11519 12.5283 0.636914 11.4199 0.537246C10.8737 0.488132 9.90267 0.495227 9.33391 0.552508ZM11.9761 1.26992C12.6159 1.39945 13.26 1.58589 13.6575 1.75662C14.3395 2.04953 15.04 2.44011 15.5404 2.80655C15.6837 2.91143 15.8776 3.04148 15.9713 3.09551C16.0651 3.14953 16.196 3.25674 16.2623 3.33376C16.3286 3.41073 16.6512 3.74813 16.9791 4.0835C17.307 4.41887 18.0174 5.15058 18.5578 5.70953C19.0983 6.26848 20.3926 7.60718 21.434 8.68442C22.4755 9.76167 23.3731 10.7096 23.4287 10.7909C23.6414 11.1021 23.7092 11.3446 23.7075 11.7887C23.7062 12.1455 23.6937 12.2246 23.6055 12.4358C23.4198 12.8801 23.1528 13.1547 22.6743 13.3934C22.5088 13.4759 22.4433 13.4856 22.0461 13.4867C21.6539 13.4877 21.5856 13.4783 21.4554 13.4051C21.3744 13.3595 21.2923 13.3223 21.273 13.3223C21.2061 13.3223 20.8644 13.007 20.2927 12.4176C19.9768 12.092 19.4523 11.5519 19.1269 11.2173C18.8016 10.8827 18.5188 10.5901 18.4985 10.567C18.4782 10.5439 17.9869 10.036 17.4069 9.43842C16.8268 8.84078 15.7983 7.7781 15.1213 7.07687C13.3734 5.26647 13.3343 5.22911 13.1865 5.22911C13.048 5.22911 12.9734 5.27357 12.6598 5.54308C12.0007 6.10935 11.2949 6.43951 10.4056 6.5976C9.54728 6.75019 8.55292 6.63463 7.80032 6.29486C7.24287 6.04316 6.90522 5.81914 6.4168 5.3769C6.00964 5.00827 5.93108 4.98033 5.76064 5.14364C5.55573 5.33994 5.63833 5.54283 6.08421 5.93865C6.86549 6.63219 7.64777 7.02244 8.67776 7.23249C9.23195 7.3455 10.0582 7.34376 10.6088 7.22843C11.0192 7.14247 11.4408 7.0122 11.6251 6.91442C11.7528 6.84664 11.9022 6.83644 11.9022 6.8955C11.9022 6.91771 11.416 7.43737 10.8217 8.05035C10.2274 8.66332 9.72437 9.1835 9.70382 9.2063C9.68331 9.22914 9.38476 9.53679 9.04042 9.88997C7.91004 11.0495 4.74537 14.3171 3.75667 15.3456C3.59547 15.5133 3.43483 15.6505 3.39969 15.6505C3.36458 15.6505 3.27929 15.5715 3.21023 15.4749C3.09822 15.3183 2.62676 14.521 2.62676 14.4882C2.62676 14.481 2.5618 14.3363 2.48238 14.1666C1.82822 12.769 1.55336 11.2491 1.66104 9.62493C1.71858 8.75674 1.82198 8.19961 2.07907 7.37251C2.23239 6.87916 2.32817 6.6452 2.60858 6.07908C2.933 5.42412 3.2283 4.95916 3.66288 4.41887C4.44767 3.44314 5.41631 2.65411 6.5195 2.09195C6.93903 1.8782 7.08193 1.81667 7.61555 1.62014C8.04481 1.46205 8.85521 1.27384 9.48173 1.18673C9.5427 1.17827 10.0416 1.17583 10.5903 1.18134C11.4343 1.1898 11.6479 1.20347 11.9761 1.26992ZM23.1369 1.28418C23.3913 1.334 23.6573 1.39268 23.7282 1.4146C24.6274 1.69294 24.8045 1.75935 25.3411 2.01955C28.162 3.38749 30.0903 6.23969 30.3469 9.42353C30.3912 9.97327 30.3689 11.1476 30.307 11.53C30.1894 12.2562 30.0459 12.8776 29.9188 13.2114C29.8917 13.2826 29.8162 13.4821 29.7511 13.6549C29.4577 14.4339 28.9164 15.3753 28.3806 16.0385C28.0787 16.4121 27.6817 16.833 27.6312 16.833C27.6072 16.833 27.4383 16.682 27.2558 16.4973C27.0733 16.3127 26.8325 16.0908 26.7208 16.0041C25.9873 15.4356 24.986 15.4367 24.2397 16.0067C23.9086 16.2596 23.3785 16.8484 23.2335 17.1242C23.0444 17.4841 22.941 17.9197 22.9569 18.2885L22.9699 18.5884L22.545 18.6121C21.8007 18.6536 21.5501 18.7788 20.8994 19.4339C20.3833 19.9536 20.2521 20.1498 20.1096 20.6156C20.0521 20.8035 20.0321 20.9681 20.0321 21.2531C20.0321 21.4643 20.0196 21.6385 20.0044 21.6402C19.9891 21.6418 19.8004 21.6472 19.5849 21.6521C18.9147 21.6674 18.5442 21.8525 17.9338 22.4773C17.3107 23.1151 17.0987 23.5707 17.0953 24.2795L17.0933 24.686L16.8905 24.679C16.5739 24.6679 16.1172 24.7396 15.8873 24.8363C15.5716 24.9692 15.394 25.1045 14.9844 25.5237C14.5656 25.9525 14.3554 26.2787 14.2296 26.6956C14.0788 27.1953 14.1656 27.8918 14.44 28.3827C14.5279 28.54 15.0328 29.109 15.2385 29.2826C15.407 29.4248 15.3671 29.537 15.1016 29.6676C14.6554 29.8871 14.1684 29.882 13.6851 29.6527C13.4919 29.561 13.3557 29.4533 13.0801 29.1739C12.6995 28.788 12.5262 28.5185 12.4367 28.1732C12.3315 27.7672 12.3897 27.2719 12.5889 26.8789C12.6471 26.7641 12.9494 26.4238 13.4453 25.9151C13.8669 25.4827 14.8931 24.4222 15.7258 23.5586C17.5863 21.6289 17.8072 21.4004 19.4428 19.7155C22.2648 16.8085 22.2976 16.7738 22.3361 16.6622C22.4068 16.4568 22.2593 16.2418 22.0477 16.2418C21.8877 16.2418 21.9173 16.2127 19.2549 18.9764C18.6968 19.5557 17.9654 20.3124 17.6295 20.6579C16.8576 21.4518 14.9277 23.446 14.25 24.1499C13.7458 24.6736 12.8152 25.6306 12.4301 26.0215C12.1906 26.2646 12.0244 26.37 11.7195 26.4723C11.2934 26.6153 10.7872 26.556 10.3778 26.3151C10.2025 26.2119 9.76354 25.7776 9.56096 25.5069C9.11418 24.9099 9.09415 24.0807 9.51173 23.4662C9.56362 23.3898 9.78593 23.1425 10.0057 22.9165C10.2255 22.6905 10.6711 22.2313 10.9958 21.8959C11.3206 21.5605 11.8611 21.0028 12.1969 20.6565C13.461 19.353 13.8264 18.9754 15.9504 16.7776C17.1486 15.5378 18.3362 14.3104 18.5895 14.0499C18.8428 13.7895 19.089 13.5217 19.1367 13.4548C19.2442 13.3036 19.2208 13.1767 19.0605 13.0417C18.8677 12.8795 18.784 12.9242 18.2421 13.4792C17.21 14.5366 16.6461 15.1182 15.6893 16.1124C15.1416 16.6815 14.4104 17.438 14.0646 17.7935C13.3428 18.5354 12.4605 19.4461 11.7907 20.1405C9.48294 22.5332 9.05291 22.9627 8.85063 23.0769C8.73895 23.1399 8.53364 23.2086 8.35651 23.2422C8.08158 23.2944 8.02714 23.2943 7.76983 23.2414C7.61385 23.2094 7.40306 23.1395 7.30144 23.0862C7.06848 22.9639 6.40767 22.3074 6.2729 22.0644C6.15346 21.849 6.02653 21.3908 6.02653 21.1751C6.02653 20.9743 6.13961 20.5536 6.25143 20.3383C6.36048 20.1283 6.58084 19.8949 9.63087 16.7591C9.93729 16.4441 10.3866 15.9793 10.6294 15.7263C10.8721 15.4733 11.3784 14.9495 11.7544 14.5623C13.7637 12.4931 15.5341 10.663 15.7727 10.4085C15.9786 10.1888 16.0032 10.1463 16.0036 10.0089C16.004 9.88221 15.984 9.8382 15.8904 9.75941C15.7554 9.64577 15.6754 9.63945 15.5564 9.73306C15.4627 9.80679 14.584 10.6987 13.7315 11.5854C13.4481 11.8801 12.9414 12.4044 12.6054 12.7503C12.2695 13.0964 11.7534 13.6285 11.4587 13.9329C11.164 14.2373 10.4489 14.9747 9.86971 15.5716C9.29045 16.1685 8.80824 16.6695 8.79808 16.6849C8.77058 16.7268 6.66265 18.8945 6.1926 19.3644C5.84364 19.7132 5.74919 19.7863 5.52743 19.879C5.2985 19.9747 5.22573 19.987 4.89019 19.9867C4.52091 19.9864 4.50373 19.9825 4.203 19.8335C3.94125 19.7038 3.83889 19.6229 3.52737 19.2994C3.0225 18.7752 2.88725 18.4805 2.88725 17.9047C2.88725 17.5692 2.92727 17.3832 3.05971 17.1035C3.16751 16.8758 3.2028 16.8373 5.11975 14.8549C5.70994 14.2446 6.65818 13.2634 7.22694 12.6745C7.79574 12.0857 8.5278 11.3295 8.85377 10.9941C9.1797 10.6588 9.72045 10.1014 10.0553 9.7556C10.3902 9.40981 10.9303 8.85235 11.2555 8.51679C11.5807 8.18124 12.0556 7.69088 12.3108 7.4271C12.5659 7.16335 12.7961 6.89479 12.8221 6.83034C12.8652 6.72388 12.8605 6.69782 12.771 6.5449L12.6724 6.37664L12.7769 6.2786C12.8344 6.22465 12.9453 6.13795 13.0232 6.08588L13.1649 5.9912L13.6904 6.5248C13.9794 6.8183 14.7046 7.5656 15.3019 8.18553C15.8992 8.80545 16.6061 9.53716 16.8728 9.81155C17.1395 10.0859 17.6394 10.6014 17.9835 10.9569C20.3774 13.4299 20.6101 13.6617 20.8451 13.8066C21.6034 14.2742 22.5225 14.2767 23.2608 13.8131C23.517 13.6521 23.9292 13.2124 24.0498 12.9712C24.2273 12.6162 24.3218 12.2959 24.3435 11.9759C24.3666 11.6368 24.3119 11.1782 24.2235 10.9693C24.0093 10.463 23.8896 10.2994 23.2588 9.64962C22.9983 9.38129 22.3362 8.69702 21.7874 8.1291C19.123 5.37157 18.5641 4.79385 17.9804 4.19437C16.7629 2.94388 16.6508 2.82159 16.6508 2.74402C16.6508 2.68826 16.7355 2.61457 16.9649 2.47085C17.3269 2.24406 18.1373 1.83563 18.4615 1.71656C18.5835 1.67177 18.7415 1.61227 18.8126 1.58441C19.0645 1.48559 20.0668 1.25861 20.5679 1.18688C20.6289 1.17812 21.1278 1.17609 21.6765 1.1823C22.5559 1.19228 22.7292 1.20436 23.1369 1.28418ZM26.1144 16.3802C26.2383 16.4437 26.4298 16.584 26.54 16.6921C27.0388 17.1809 27.6436 17.8307 27.7359 17.9768C27.985 18.3716 28.0448 18.8539 27.8975 19.2812C27.7854 19.6063 27.7036 19.7226 27.2891 20.1448C26.7984 20.6446 26.6321 20.7259 26.0925 20.7293C25.7339 20.7316 25.6891 20.7237 25.5013 20.6252C25.3895 20.5665 25.2648 20.4917 25.2241 20.4589C25.0446 20.314 23.9095 19.1184 23.8263 18.9867C23.7078 18.7988 23.5797 18.3836 23.5797 18.1871C23.5797 17.9841 23.6971 17.5818 23.8151 17.3805C23.9717 17.1131 24.5692 16.5218 24.7992 16.4066C25.1031 16.2542 25.1567 16.2432 25.5382 16.2545C25.8472 16.2636 25.9163 16.2787 26.1144 16.3802ZM22.9567 19.325C23.2517 19.4145 23.4313 19.5585 24.0786 20.2245C24.7697 20.9357 24.8863 21.0927 24.9887 21.4506C25.0809 21.7729 25.0758 21.9778 24.9681 22.2947C24.8516 22.6371 24.7342 22.8014 24.3094 23.2166C23.8682 23.6478 23.6588 23.7545 23.2146 23.7746C22.9468 23.7867 22.8696 23.7751 22.6419 23.6884C22.3893 23.5924 22.3506 23.5598 21.6823 22.8807C21.2994 22.4915 20.943 22.1065 20.8905 22.0252C20.6646 21.6755 20.5967 21.1316 20.7304 20.7429C20.829 20.4564 20.9366 20.3004 21.3037 19.9117C21.758 19.4309 22.044 19.2822 22.5265 19.2761C22.6688 19.2743 22.8624 19.2963 22.9567 19.325ZM20.1333 22.399C20.368 22.4897 20.4254 22.5386 21.0795 23.2028C21.4625 23.5917 21.8186 23.9763 21.8708 24.0574C22.1628 24.5107 22.1718 25.1744 21.8925 25.6546C21.7485 25.9022 21.1395 26.5213 20.9285 26.6346C20.8318 26.6865 20.6321 26.7559 20.4847 26.7889C20.2451 26.8425 20.1893 26.8431 19.9592 26.7952C19.8176 26.7656 19.6223 26.6958 19.5251 26.6399C19.3463 26.5371 18.1315 25.3232 17.9692 25.0851C17.8541 24.9163 17.7431 24.5848 17.7163 24.3298C17.6896 24.0763 17.8008 23.6673 17.968 23.4044C18.0285 23.3092 18.2488 23.0668 18.4577 22.8656C18.7616 22.5729 18.8848 22.4805 19.0745 22.4029C19.4076 22.2667 19.7875 22.2653 20.1333 22.399ZM17.281 25.4722C17.4547 25.5599 17.6372 25.7198 18.0987 26.1888C18.9691 27.0732 19.0166 27.1376 19.1256 27.5826C19.1824 27.8145 19.1858 27.8901 19.1494 28.1171C19.1257 28.2645 19.056 28.4833 18.9918 28.6113C18.842 28.9103 18.2515 29.5221 17.9442 29.6968C17.725 29.8213 17.7174 29.8227 17.279 29.8206C16.8483 29.8184 16.8295 29.8149 16.6233 29.6978C16.3953 29.5683 15.2838 28.4747 15.0594 28.159C14.6995 27.6528 14.694 26.9442 15.046 26.4229C15.2365 26.1407 15.7918 25.6042 16.0041 25.4971C16.2888 25.3536 16.3857 25.334 16.7433 25.3475C17.0059 25.3574 17.0941 25.3779 17.281 25.4722Z" stroke="white" mask="url(#path-1-outside-1_990_42279)"/>
</svg>
